<svg xmlns="http://www.w3.org/2000/svg" viewBox="0 0 320 120" fill="none" role="img" aria-label="WOW Arcade">
  <path d="M28 88c8-22 18-42 32-58 6-7 14-12 22-12 10 0 18 7 20 17 2-10 10-17 20-17 8 0 16 5 22 12 14 16 24 36 32 58" stroke="#8A9B7A" stroke-width="1.2" stroke-linecap="round" opacity=".65"/>
  <path d="M42 78c6-14 14-28 24-38M78 40c10 10 18 24 24 38" stroke="#8A9B7A" stroke-width=".9" stroke-linecap="round" opacity=".45"/>
  <ellipse cx="160" cy="28" rx="6" ry="10" fill="#A89B8C" opacity=".35" transform="rotate(-18 160 28)"/>
  <ellipse cx="178" cy="32" rx="5" ry="8" fill="#8A9B7A" opacity=".4" transform="rotate(12 178 32)"/>
  <text x="160" y="72" text-anchor="middle" font-family="Georgia, 'Times New Roman', serif" font-size="34" font-weight="500" fill="#5C4A42" letter-spacing=".04em">WOW Arcade</text>
  <text x="160" y="96" text-anchor="middle" font-family="Georgia, serif" font-size="11" fill="#8B7355" letter-spacing=".28em">HANDCRAFTED KEEPSAKES</text>
</svg>
